PathFileType  4	(X/Y/Z) C:\Users\15086\Documents\NMBL_Research\NordBoard_Files\K_Nord_Zeroed\
DataRate	CameraRate	NumFrames	NumMarkers	Units	OrigDataRate	OrigDataStartFrame	OrigNumFrames
  200.0		  200.0		   5		     52		 mm	  200.0	      1674	   1912
Frame#	Time	C7			R_Shoulder			L_Shoulder			Sternum			R_humerus			R_elbow_med			R_elbow_lat			R_forearm			R_wrist_radius			R_wrist_ulna			L_humerus			L_elbow_med			L_elbow_lat			L_forearm			L_wrist_radius			L_wrist_ulna			r.ASIS			r.PSIS			r_IC			L.ASIS			L.PSIS			l_IC			r_thigh1			r_thigh2			r_thigh3			r_thigh4			r_thigh5			r_knee			r_mknee			r_shank_antsup			r_sh2			r_sh3			r_sh4			r_ankle			r_mankle			r_calc			r_5meta			r_toe			L_thigh1			L_thigh2			L_thigh3			L_thigh4			L_knee			L_mknee			L_shank_antsup			L_sh2			L_sh3			L_ankle			L_mankle			L_calc			L_5meta			L_toe			
		X1	Y1	Z1	X2	Y2	Z2	X3	Y3	Z3	X4	Y4	Z4	X5	Y5	Z5	X6	Y6	Z6	X7	Y7	Z7	X8	Y8	Z8	X9	Y9	Z9	X10	Y10	Z10	X11	Y11	Z11	X12	Y12	Z12	X13	Y13	Z13	X14	Y14	Z14	X15	Y15	Z15	X16	Y16	Z16	X17	Y17	Z17	X18	Y18	Z18	X19	Y19	Z19	X20	Y20	Z20	X21	Y21	Z21	X22	Y22	Z22	X23	Y23	Z23	X24	Y24	Z24	X25	Y25	Z25	X26	Y26	Z26	X27	Y27	Z27	X28	Y28	Z28	X29	Y29	Z29	X30	Y30	Z30	X31	Y31	Z31	X32	Y32	Z32	X33	Y33	Z33	X34	Y34	Z34	X35	Y35	Z35	X36	Y36	Z36	X37	Y37	Z37	X38	Y38	Z38	X39	Y39	Z39	X40	Y40	Z40	X41	Y41	Z41	X42	Y42	Z42	X43	Y43	Z43	X44	Y44	Z44	X45	Y45	Z45	X46	Y46	Z46	X47	Y47	Z47	X48	Y48	Z48	X49	Y49	Z49	X50	Y50	Z50	X51	Y51	Z51	X52	Y52	Z52	

1674	8.36500	1196.646	1102.093	-855.315	1319.604	1086.445	-887.220	1061.170	1084.684	-882.690	1191.269	985.210	-933.143	1467.715	1090.527	-785.659	1597.925	1017.156	-756.248	1570.361	1089.013	-719.736	1586.241	1139.979	-832.779	1562.094	1130.767	-961.744	1615.106	1171.107	-938.674	925.957	1073.453	-760.459	780.959	990.387	-742.968	801.323	1074.245	-719.200	811.307	1113.252	-814.264	809.780	1131.059	-937.671	883.482	1111.708	-928.545	1334.481	626.786	-632.812	1283.855	809.042	-571.626	1368.412	745.573	-644.267	1104.584	616.145	-608.899	1169.841	808.631	-561.090	1067.711	718.214	-640.857	1361.186	443.489	-511.425	1354.620	348.892	-443.866	1390.978	343.158	-401.144	1414.313	495.890	-433.270	1404.671	399.587	-367.026	1390.618	307.090	-319.948	1269.695	306.819	-306.715	1415.694	315.750	-208.035	1420.985	328.353	-86.974	1419.869	392.779	-214.165	1410.393	408.972	-97.927	1417.887	373.358	71.351	1337.277	357.347	72.012	1355.828	447.298	75.748	1422.624	310.738	191.033	1380.300	262.261	181.030	1039.456	487.173	-464.895	1033.998	374.423	-381.356	1040.307	560.396	-371.016	1052.936	447.109	-290.445	1036.601	337.248	-273.724	1162.760	309.707	-269.693	1024.243	324.722	-170.531	1036.614	412.945	-181.294	1038.994	416.417	-59.778	1067.293	383.661	106.788	1142.589	357.427	102.102	1107.648	442.980	113.279	1090.279	303.958	241.142	1126.432	262.978	214.815
1675	8.37000	1196.653	1101.771	-855.712	1319.596	1086.079	-887.603	1061.136	1084.297	-883.104	1191.224	984.803	-933.526	1467.572	1090.322	-785.982	1597.735	1016.829	-756.419	1570.198	1088.735	-719.951	1586.123	1139.673	-832.992	1562.023	1130.408	-961.963	1615.089	1170.726	-938.900	925.907	1073.109	-760.904	780.881	990.087	-743.351	801.227	1074.011	-719.733	811.406	1112.728	-814.832	810.201	1130.268	-938.146	883.672	1111.037	-928.980	1334.413	626.604	-632.964	1283.822	808.844	-571.856	1368.336	745.338	-644.520	1104.449	616.015	-609.000	1169.777	808.507	-561.335	1067.622	717.970	-641.037	1361.149	443.394	-511.448	1354.543	348.805	-443.858	1390.978	343.128	-401.150	1414.282	495.809	-433.398	1404.654	399.529	-367.074	1390.661	306.942	-319.919	1269.692	306.813	-306.706	1415.696	315.737	-208.031	1420.954	328.349	-86.955	1419.819	392.790	-214.199	1410.391	409.032	-97.932	1417.997	373.229	71.408	1337.247	357.378	71.984	1355.812	447.272	75.751	1422.692	310.646	191.018	1379.756	261.829	180.940	1039.420	487.136	-464.955	1033.969	374.326	-381.327	1040.290	560.375	-371.135	1052.959	447.155	-290.567	1036.564	337.287	-273.720	1162.738	309.684	-269.692	1024.240	324.731	-170.501	1036.559	412.889	-181.277	1038.971	416.356	-59.787	1067.303	383.561	106.737	1142.657	357.325	102.091	1107.672	442.967	113.245	1090.305	304.016	241.153	1126.554	263.050	214.867
1676	8.37500	1196.648	1101.398	-856.140	1319.549	1085.686	-887.996	1061.160	1083.827	-883.596	1191.126	984.401	-933.881	1467.459	1090.023	-786.267	1597.601	1016.591	-756.574	1570.003	1088.490	-720.150	1586.015	1139.337	-833.204	1562.152	1130.194	-962.256	1614.931	1170.338	-939.131	925.876	1072.828	-761.407	780.802	989.808	-743.785	801.137	1073.736	-720.231	811.488	1112.344	-815.349	810.440	1129.209	-938.801	883.312	1109.962	-929.719	1334.360	626.397	-633.120	1283.783	808.726	-572.086	1368.277	745.101	-644.770	1104.400	615.801	-608.997	1170.430	809.176	-561.188	1067.524	717.777	-641.167	1361.068	443.288	-511.543	1354.680	348.460	-444.111	1390.914	343.066	-401.207	1414.231	495.781	-433.499	1404.646	399.502	-367.130	1390.680	306.939	-319.953	1269.670	306.835	-306.697	1415.744	315.772	-208.079	1420.962	328.379	-86.968	1419.794	392.805	-214.187	1410.268	408.990	-97.965	1417.996	373.202	71.422	1337.233	357.408	71.926	1355.801	447.264	75.749	1422.619	310.604	191.054	1379.750	261.720	180.871	1039.404	487.061	-465.011	1033.953	374.312	-381.352	1040.255	560.353	-371.166	1052.917	447.102	-290.593	1036.566	337.289	-273.721	1162.745	309.673	-269.700	1024.248	324.737	-170.535	1036.575	412.878	-181.285	1038.997	416.348	-59.749	1067.337	383.644	106.744	1142.710	357.263	102.086	1107.717	442.975	113.228	1090.376	304.058	241.187	1126.536	263.025	214.880
1677	8.38000	1196.536	1101.008	-856.687	1319.537	1085.203	-888.469	1061.079	1083.458	-884.042	1191.064	984.026	-934.241	1467.329	1089.680	-786.560	1597.474	1016.250	-756.709	1569.870	1088.225	-720.335	1585.926	1138.975	-833.437	1562.080	1129.828	-962.420	1614.874	1169.930	-939.397	925.788	1072.522	-761.809	780.720	989.495	-744.205	801.050	1073.451	-720.705	811.599	1111.882	-815.845	810.668	1128.720	-939.281	883.469	1109.281	-930.226	1334.277	626.217	-633.260	1283.773	808.511	-572.424	1368.204	744.922	-645.064	1104.310	615.638	-609.076	1170.365	808.990	-561.416	1067.406	717.652	-641.326	1360.938	443.168	-511.633	1354.177	348.081	-443.835	1390.918	343.008	-401.259	1414.155	495.729	-433.578	1404.587	399.441	-367.254	1390.694	306.858	-319.946	1269.655	306.817	-306.703	1415.737	315.794	-208.044	1420.960	328.393	-86.966	1419.747	392.825	-214.185	1410.183	408.990	-97.919	1417.986	373.141	71.404	1337.235	357.280	71.946	1355.795	447.182	75.704	1422.489	310.436	191.079	1379.791	261.527	180.892	1039.391	486.973	-465.090	1033.958	374.236	-381.342	1040.226	560.304	-371.217	1052.874	447.017	-290.655	1036.570	337.221	-273.740	1162.764	309.687	-269.690	1024.255	324.702	-170.425	1036.573	412.800	-181.280	1038.998	416.346	-59.751	1067.339	383.677	106.785	1142.742	357.164	102.067	1107.720	442.927	113.210	1090.360	304.018	241.175	1126.507	263.060	214.844
1678	8.38500	1196.478	1100.711	-857.125	1319.578	1084.852	-888.879	1061.008	1083.097	-884.496	1192.089	983.671	-935.086	1467.199	1089.383	-786.853	1597.323	1015.989	-756.795	1569.729	1087.956	-720.498	1585.566	1138.326	-833.619	1562.040	1129.466	-962.664	1615.080	1169.639	-939.582	925.677	1072.073	-762.360	780.741	989.091	-744.368	800.970	1073.163	-721.196	811.683	1111.422	-816.379	810.423	1129.079	-940.350	883.604	1108.652	-930.653	1334.225	626.039	-633.397	1283.699	808.355	-572.670	1368.167	744.622	-645.301	1104.184	615.442	-609.175	1170.342	808.837	-561.635	1067.304	717.458	-641.444	1360.883	443.071	-511.772	1354.405	348.200	-444.208	1390.854	342.910	-401.330	1414.095	495.650	-433.740	1404.539	399.370	-367.357	1390.698	306.837	-319.960	1269.668	306.787	-306.726	1415.749	315.797	-208.063	1420.970	328.416	-86.991	1419.693	392.853	-214.229	1410.193	408.965	-97.967	1418.065	373.090	71.425	1337.235	357.313	71.918	1355.843	447.142	75.722	1422.503	310.447	191.047	1380.513	262.357	180.766	1039.372	486.928	-465.118	1033.896	374.218	-381.411	1040.195	560.274	-371.278	1052.841	447.059	-290.625	1036.579	337.212	-273.715	1162.746	309.627	-269.686	1024.261	324.675	-170.438	1036.435	412.827	-181.289	1038.976	416.299	-59.772	1067.345	383.643	106.736	1142.775	357.095	102.097	1107.731	442.934	113.223	1090.377	304.056	241.147	1126.523	263.037	214.834
